<svg width="100" height="100" viewBox="0 0 100 100" fill="none" xmlns="http://www.w3.org/2000/svg">
  <path fill="currentColor" d="M50 8 84.6 28v44L50 92 15.4 72V28L50 8Zm0 10.8L24.8 33.4v29.2L50 77.2l25.2-14.6V33.4L50 18.8Z"/>
  <path fill="currentColor" d="M36 35.5 50 27.4l14 8.1v16.2l-14 8.1-14-8.1V35.5Zm9 5.2v5.8l5 2.9 5-2.9v-5.8l-5-2.9-5 2.9Z"/>
  <path fill="currentColor" d="M31 64.5 45 56.4l14 8.1v16.2l-14 8.1-14-8.1V64.5Zm9 5.2v5.8l5 2.9 5-2.9v-5.8l-5-2.9-5 2.9Z"/>
  <path fill="currentColor" d="M55 64.5 69 56.4l14 8.1v16.2l-14 8.1-14-8.1V64.5Zm9 5.2v5.8l5 2.9 5-2.9v-5.8l-5-2.9-5 2.9Z"/>
</svg>
